<svg xmlns="http://www.w3.org/2000/svg" width="43" height="43" viewBox="0 0 43 43">
    <g id="Gruppe_12" data-name="Gruppe 12" transform="translate(-336 -921)">
        <rect id="Rechteck_13" data-name="Rechteck 13" width="43" height="43" rx="9" transform="translate(336 921)" fill="#fff"/>
        <path id="Icon_zocial-call" data-name="Icon zocial-call" d="M3.328,8.61a2.124,2.124,0,0,1,.541-1.153L8.193,3.132q.505-.432.757.144l3.5,6.559a.944.944,0,0,1-.18,1.117L10.68,12.539a1.793,1.793,0,0,0-.5,1.117,5.5,5.5,0,0,0,1.117,2.775,23.7,23.7,0,0,0,2.2,2.884l1.117,1.152c.337.337.768.751,1.3,1.243a21.757,21.757,0,0,0,2.612,1.946,5.846,5.846,0,0,0,2.865,1.207,1.569,1.569,0,0,0,1.153-.469l1.875-1.874a.792.792,0,0,1,1.08-.144L31.8,26.089a.527.527,0,0,1,.288.378.46.46,0,0,1-.144.414L27.62,31.207a2.118,2.118,0,0,1-1.152.539,8.719,8.719,0,0,1-3.983-.487A18.023,18.023,0,0,1,18.377,29.3q-1.892-1.225-3.514-2.486t-2.595-2.162l-.937-.9q-.36-.36-.955-.991T8.3,20.269a36.194,36.194,0,0,1-2.559-3.622,21.129,21.129,0,0,1-1.874-4.018A8.548,8.548,0,0,1,3.328,8.61Z" transform="translate(340.015 925.256)" fill="#140600"/>
    </g>
</svg>
