<svg xmlns="http://www.w3.org/2000/svg" width="43" height="43" viewBox="0 0 43 43">
    <g id="Gruppe_13" data-name="Gruppe 13" transform="translate(-276 -921)">
        <rect id="Rechteck_4" data-name="Rechteck 4" width="43" height="43" rx="9" transform="translate(276 921)" fill="#fff"/>
        <path id="Icon_zocial-email" data-name="Icon zocial-email" d="M.072,22.922V5.9q0-.03.089-.561l10.018,8.57L.19,23.513a2.5,2.5,0,0,1-.118-.591ZM1.4,4.157a1.274,1.274,0,0,1,.5-.089H28.885a1.673,1.673,0,0,1,.532.089l-10.048,8.6L18.04,13.82l-2.63,2.157-2.63-2.157-1.33-1.064Zm.03,20.509L11.509,15l3.9,3.162L19.31,15l10.077,9.663a1.419,1.419,0,0,1-.5.089H1.9a1.338,1.338,0,0,1-.473-.089ZM20.64,13.909l9.989-8.57a1.764,1.764,0,0,1,.089.561V22.922a2.265,2.265,0,0,1-.089.591Z" transform="translate(282.384 928.224)" fill="#140600"/>
    </g>
</svg>
