<svg xmlns="http://www.w3.org/2000/svg" width="47.934" height="47.934" viewBox="0 0 47.934 47.934">
    <path id="Icon_simple-instagram" data-name="Icon simple-instagram" d="M23.967,0c-6.511,0-7.324.03-9.88.144A17.673,17.673,0,0,0,8.269,1.258,11.737,11.737,0,0,0,4.022,4.022,11.694,11.694,0,0,0,1.258,8.269,17.621,17.621,0,0,0,.144,14.087C.024,16.643,0,17.456,0,23.967s.03,7.324.144,9.88a17.684,17.684,0,0,0,1.114,5.818,11.754,11.754,0,0,0,2.764,4.246,11.72,11.72,0,0,0,4.246,2.764,17.694,17.694,0,0,0,5.818,1.114c2.556.12,3.369.144,9.88.144s7.324-.03,9.88-.144a17.736,17.736,0,0,0,5.818-1.114,12.248,12.248,0,0,0,7.01-7.01,17.684,17.684,0,0,0,1.114-5.818c.12-2.556.144-3.369.144-9.88s-.03-7.324-.144-9.88a17.724,17.724,0,0,0-1.114-5.818,11.763,11.763,0,0,0-2.764-4.246,11.677,11.677,0,0,0-4.246-2.764A17.632,17.632,0,0,0,33.847.144C31.291.024,30.478,0,23.967,0Zm0,4.314c6.4,0,7.16.032,9.687.142a13.2,13.2,0,0,1,4.448.829,7.887,7.887,0,0,1,4.55,4.548,13.233,13.233,0,0,1,.825,4.448c.114,2.529.14,3.287.14,9.687s-.03,7.16-.148,9.687a13.487,13.487,0,0,1-.841,4.448,7.61,7.61,0,0,1-1.8,2.76,7.477,7.477,0,0,1-2.756,1.79,13.33,13.33,0,0,1-4.464.825c-2.544.114-3.293.14-9.7.14s-7.162-.03-9.7-.148a13.59,13.59,0,0,1-4.466-.841,7.422,7.422,0,0,1-2.754-1.8,7.277,7.277,0,0,1-1.8-2.756,13.6,13.6,0,0,1-.839-4.464c-.09-2.517-.122-3.293-.122-9.675s.032-7.162.122-9.709a13.586,13.586,0,0,1,.839-4.462,7.1,7.1,0,0,1,1.8-2.758A7.089,7.089,0,0,1,9.737,5.215a13.265,13.265,0,0,1,4.436-.841c2.546-.09,3.3-.12,9.7-.12l.09.06Zm0,7.346A12.307,12.307,0,1,0,36.274,23.967,12.306,12.306,0,0,0,23.967,11.66Zm0,20.3a7.989,7.989,0,1,1,7.989-7.989A7.987,7.987,0,0,1,23.967,31.956Zm15.67-20.781A2.876,2.876,0,1,1,36.761,8.3,2.878,2.878,0,0,1,39.637,11.175Z" fill="#fff"/>
</svg>
